<?xml version="1.0" encoding="UTF-8"?>
<!DOCTYPE svg PUBLIC "-//W3C//DTD SVG 1.1//EN" "http://www.w3.org/Graphics/SVG/1.1/DTD/svg11.dtd">
<!-- Creator: CorelDRAW 2021.5 -->
<svg xmlns="http://www.w3.org/2000/svg" xml:space="preserve" width="33.8667mm" height="8.0263mm" version="1.1" style="shape-rendering:geometricPrecision; text-rendering:geometricPrecision; image-rendering:optimizeQuality; fill-rule:evenodd; clip-rule:evenodd"
viewBox="0 0 246656.64 58456.84"
 xmlns:xlink="http://www.w3.org/1999/xlink"
 xmlns:xodm="http://www.corel.com/coreldraw/odm/2003">
 <defs>
  <style type="text/css">
   <![CDATA[
    .fil0 {fill:black;fill-rule:nonzero}
   ]]>
  </style>
 </defs>
 <g id="Слой_x0020_1">
  <metadata id="CorelCorpID_0Corel-Layer"/>
  <g>
   <path class="fil0" d="M26485.22 40022.43l-16256.02 0 -3292.72 12288.15 11682.92 0 4926.33 -1319.71 2939.48 -10968.44zm84513.8 -4275.22l-8.74 31.32 232.33 -232.33 0.73 0 50.25 -49.53 0 -0.73 50.98 -48.8 0 0 50.98 -48.07 0.73 0 50.98 -47.34 0.73 0 52.44 -47.34 0 0 52.44 -45.88 0.73 0 53.17 -45.88 0 0 53.9 -44.43 0.73 0 53.9 -44.43 0 0 54.62 -42.97 0.73 0 55.35 -42.97 55.35 -42.24 0.73 0c56.08,-41.51 112.89,-81.57 170.43,-120.9l0 0 57.54 -39.33 0 0 58.27 -37.87 0 -0.73 58.99 -37.14 0 0 58.99 -37.14 0 0 119.44 -71.37 0 0 60.45 -34.23 0 -0.73 60.45 -33.5 0 0 61.18 -32.77 0 -0.73 61.91 -32.05 0 0 61.18 -31.32 0 0 62.64 -30.59 0 0 62.64 -30.59 62.64 -29.13 0.73 0 62.64 -28.4 0 0 64.09 -27.68 0 0 63.36 -26.95 0.73 0 63.36 -26.22 0.73 0 64.09 -25.49 0.73 0 64.09 -24.76 0.73 0 64.82 -23.31 0 0 65.55 -23.31 0 0 65.55 -21.85 0.73 0 65.55 -21.85 0 0 66.28 -20.39 0 0 66.28 -20.39 0.73 0 66.28 -18.21 0 0 67.73 -18.21 0 0 67.01 -17.48 0 0 67.73 -16.75 0 0 135.47 -30.59 0.73 0 67.73 -13.84 0.73 0c182.08,-37.14 366.34,-64.09 552.06,-82.3l0 -0.73 69.92 -6.55 69.92 -5.1 0.73 0 69.92 -5.1 0 0 69.92 -3.64 0 0 70.65 -2.91 0 -0.73 141.29 -2.91 0 -0.73 70.65 0 0 0 13214.57 0 6327.61 0 33.5 0 -6585.43 24576.3 -6361.11 0 1211.92 -4521.39 -9803.14 0 -5077.82 1365.59 -2447.87 0 -845.58 3155.79 -6361.11 0 567.36 -2117.94 3180.56 -11869.37 0 -0.73 8697.55 -8720.13zm-3188.57 11901.41l-404.22 1506.89 5096.03 -1366.32 536.77 0 6336.35 0 5359.68 0 2080.8 -7766.03 -11379.94 0 -7625.47 7625.47zm-59480.12 1716.64l-9089.39 9088.66 0 1.46 -0.73 0 -6360.38 0 -0.73 0 603.05 -2248.31 5983.12 -22328.72 6361.11 0 -2699.14 10069.7 -3601.52 5533.75 115.8 -116.53 4477.69 -4476.96 0 -0.73 50.25 -49.53 0 0 50.98 -48.8 0 -0.73 50.98 -47.34 0 0 52.44 -47.34 0 -0.73 52.44 -46.61 0 0 52.44 -45.88 0 -0.73 53.9 -45.16 0 0 53.9 -44.43 0 -0.73 54.62 -43.7 0 0 54.62 -42.97 0 -0.73 55.35 -42.24 0 -0.73 56.08 -41.51 0.73 0c74.29,-55.35 150.76,-108.52 227.96,-160.23l0 0 58.27 -37.87 0 -0.73 58.27 -37.14 0.73 0c136.92,-87.4 277.49,-167.51 421.7,-242.53l0 0 123.81 -61.91 0.73 0 61.91 -30.59 0.73 0 62.64 -29.13 0 0 63.36 -28.4 0 0 127.46 -54.62 0 0 64.09 -26.22 0.73 0 64.09 -25.49 0 0 64.82 -24.76 0 0 65.55 -23.31 0 0c65.55,-23.31 130.37,-45.88 196.65,-67.01l0.73 0 132.55 -40.79 0.73 0 133.28 -36.42 0.73 0 67.01 -17.48 0 0 67.01 -16.75 0.73 0 67.01 -16.02 0.73 0 67.73 -14.57 0 0 68.46 -13.84 0 0 68.46 -13.84 0 0 68.46 -12.38 69.19 -11.65 69.19 -10.2 69.19 -10.2 69.19 -9.47 69.19 -8.01 69.92 -7.28 69.92 -6.55 69.92 -5.1 69.92 -5.1 0.73 0 69.92 -3.64 0 0 70.65 -3.64 0 0 69.92 -2.18 70.65 -1.46 0.73 0 69.92 0 0.73 0 5801.77 0 4925.6 0 2503.22 -9342.11 6361.11 0 -6585.43 24577.03 -6360.38 0 2435.49 -9090.84 -8894.92 0zm108177.52 -15486.91l-6361.11 0 774.93 -2889.96 6853.45 -1837.54 -1267.27 4727.5zm11093.71 -1836.08l-7076.32 26413.11 -6361.11 0 2697.68 -10068.24 3602.25 -5534.47 -2895.78 2896.51 0.73 -1.46 -6564.31 6563.58 1.46 0 -4477.69 4477.69c-200.29,200.29 -413.68,383.82 -638.73,549.88l0 0 -56.08 41.51 -0.73 0 -56.08 40.06 -0.73 0 -56.81 40.06 -0.73 0 -115.8 77.2 0 0 -58.27 37.87 -0.73 0 -58.27 36.42 -0.73 0 -58.99 36.42 0 0 -59.72 34.96 -0.73 0 -59.72 34.96 -60.45 33.5 -0.73 0 -60.45 33.5 -0.73 0 -61.18 32.05 0 0 -61.18 32.05 -0.73 0 -61.91 30.59 -0.73 0 -61.91 29.86 0 0 -63.36 29.13 0 0.73 -62.64 27.68 -0.73 0.73 -63.36 27.68 0 0 -63.36 26.22 -0.73 0.73 -64.09 25.49 0 0.73 -64.82 24.76 0 0.73 -64.82 24.03 0 0.73 -64.82 23.31 0 0 -65.55 23.31 0 0 -66.28 21.85 -65.55 21.12 0 0.73 -66.28 20.39 -67.01 19.66 0 0 -66.28 18.94 -0.73 0 -66.28 18.21 -0.73 0 -67.01 16.75 0 0.73 -67.73 16.02 0 0.73 -67.73 15.29 0 0.73 -68.46 13.84 0 0.73 -67.73 13.84 -0.73 0 -67.73 13.11 -0.73 0.73 -68.46 11.65 0 0.73 -68.46 10.92 0 0.73c-298.61,48.07 -602.32,72.1 -909.67,73.56l-1834.63 0 0.73 -1.46 -4331.3 0 -0.73 0 0 0 -1093.93 -1894.35 -1213.37 -2101.19 286.23 -1069.17 5228.58 -19512.32 6361.11 0 -4938.71 18432.95 1348.84 0 0 -0.73 18431.5 -18432.22 1.46 0 6852 -1836.08zm-97288.47 26413.84l-5193.62 0 2109.2 -7872.37c36.42,-135.47 77.2,-269.48 123.81,-402.03l0 0 31.32 -87.4 0 0 32.77 -87.4 16.75 -42.97 17.48 -43.7 0 0 17.48 -42.97 0.73 0 17.48 -42.97 0 0 18.21 -42.24 18.94 -42.97 18.94 -42.24 19.66 -42.24 19.66 -42.24 19.66 -42.24 0 0 20.39 -41.51 0 0 21.12 -41.51 0 0 20.39 -41.51 0.73 0 21.12 -40.79 0 0 21.85 -40.79 21.85 -41.51 0 0 21.85 -40.06 0.73 0 22.58 -40.79 0 0 22.58 -40.06 0.73 0 46.61 -80.11 0.73 0 23.31 -40.06 0.73 0 24.03 -39.33 0 0 24.76 -39.33 0 0 75.74 -116.53 0 0 51.71 -77.2 0.73 0 53.17 -75.74 0.73 0 26.22 -37.87 0.73 0 26.95 -37.14 0.73 0c55.35,-75.02 112.16,-148.58 171.15,-220.68l0.73 0 89.58 -107.06 0 0c91.04,-104.88 185.72,-208.3 286.23,-308.08l12486.98 -12486.98 49.53 -49.53 0 0 51.71 -48.8 0 -0.73 50.98 -47.34 0 0 51.71 -47.34 0 -0.73 52.44 -46.61 0 0 53.17 -45.88 0 -0.73 53.17 -45.16 0 0 53.9 -44.43 0 -0.73 54.62 -43.7 0 0 55.35 -42.97 0 -0.73 55.35 -42.24 0 -0.73 56.08 -41.51 0 0 56.08 -40.79 0 0 56.81 -40.79 0 0 57.54 -39.33 0 -0.73 58.27 -38.6 0 0 58.27 -37.87 0 -0.73 58.27 -37.14 0 -0.73 58.99 -36.42 0 0 59.72 -35.69 0 -0.73 59.72 -34.96 0 0 60.45 -34.23 0 -0.73 60.45 -33.5 0 0 61.18 -32.77 0 -0.73 61.18 -32.05 0 0 61.91 -31.32 0 0 62.64 -30.59 0 -0.73 62.64 -29.86 0 0 62.64 -29.13 0 0 63.36 -28.4 0 -0.73 63.36 -26.95 0 0 64.82 -26.95 0 -0.73 64.09 -25.49 0 0 64.09 -25.49 0 0 64.82 -24.76 0 0 65.55 -23.31 0 -0.73 65.55 -22.58 0 0 65.55 -21.85 0 -0.73 66.28 -21.12 0 0 66.28 -20.39 0 0 67.01 -20.39 0 0 66.28 -18.21 0 -0.73 67.73 -17.48 0 -0.73 67.01 -16.75 0 -0.73 67.73 -16.02 0 0 67.73 -16.02 0 0 67.73 -14.57 0 -0.73 68.46 -13.11 0 -0.73 68.46 -13.11 0 0 69.19 -12.38 0 0 68.46 -11.65 0 0 69.19 -10.2 0 -0.73 69.19 -9.47 0 0 69.92 -9.47 0 0 69.19 -8.01 0 0 69.92 -7.28 0 0 69.19 -6.55 0 0 70.65 -5.1 0 -0.73 69.92 -4.37 0 -0.73 70.65 -2.91 0 -0.73 70.65 -2.91 0 0 69.92 -2.18 0 0 70.65 -1.46 0 0 70.65 0 0 -0.73 6331.25 0 -0.73 0.73 4348.78 0 3377.2 0 0 0 1398.37 0 -6585.43 24577.03 -6360.38 0 4938.71 -18432.95 -7260.58 0 -12267.76 12268.49 -1651.82 6164.47 -1167.49 0zm110635.59 -9090.84l-9089.39 9088.66 0 1.46 -0.73 0 -6360.38 0 -0.73 0 603.05 -2248.31 5982.39 -22328.72 6361.11 0 -2696.95 10069.7 -3603.71 5533.75 116.53 -116.53 4476.96 -4476.96 0.73 -0.73 50.25 -49.53 0 0 50.25 -48.8 0.73 -0.73 50.98 -47.34 0 0 51.71 -47.34 0 -0.73 52.44 -46.61 0 0 53.17 -45.88 0 -0.73 53.17 -45.16 0 0 53.9 -44.43 0 -0.73 55.35 -43.7 0 0 54.62 -42.97 0 -0.73 55.35 -42.24 0 -0.73 56.08 -41.51 0 0c75.02,-55.35 151.49,-108.52 228.69,-160.23l0 0 58.27 -37.87 0 -0.73 58.27 -37.14 0.73 0c136.92,-87.4 277.49,-167.51 420.97,-242.53l0.73 0 123.81 -61.91 0 0 62.64 -30.59 0 0 62.64 -29.13 0.73 0 62.64 -28.4 0.73 0 127.46 -54.62 0 0 64.09 -26.22 0 0 64.09 -25.49 0.73 0 64.82 -24.76 0 0 64.82 -23.31 0.73 0c64.82,-23.31 130.37,-45.88 196.65,-67.01l0.73 0 132.55 -40.79 0 0 134.01 -36.42 0 0 67.01 -17.48 0.73 0 67.01 -16.75 0 0 67.73 -16.02 0 0 67.73 -14.57 0.73 0 67.73 -13.84 0.73 0 67.73 -13.84 0.73 0 68.46 -12.38 68.46 -11.65 69.19 -10.2 69.19 -10.2 69.92 -9.47 69.19 -8.01 69.92 -7.28 69.92 -6.55 69.92 -5.1 69.92 -5.1 0 0 69.92 -3.64 0.73 0 69.92 -3.64 0.73 0 69.92 -2.18 70.65 -1.46 0 0 70.65 0 0 0 6332.71 0 4362.61 0 2503.22 -9342.11 6361.11 0 -2503.22 9342.11 0.73 0 -1101.94 4108.43 -2981 11126.49 -6361.11 0 2436.22 -9090.84 -8862.15 0zm-138320.34 -43221.19l0 0 -2195.14 8192.83 0 0 0 0.73 -2956.96 794.59 -3898.68 1048.05 0.73 -0.73 -18278.55 4911.76 -933.7 3485.72 -6361.11 0 6325.43 -23609.1 260.01 -967.93 24121.83 0c131.83,0 261.47,5.83 388.92,16.75l0 0.73 127.46 13.11 0 0c84.48,10.2 168.24,22.58 251.27,37.14l0 0.73 123.09 23.31 0 0.73c81.57,16.75 162.41,35.69 241.8,57.54l0 0.73 119.44 33.5 0 0.73 117.26 37.14 0 0.73 115.07 40.79 0 0 114.35 43.7 0 0.73 112.16 46.61 0 0.73 110.7 49.53 0 0 108.52 53.17 0 0 107.06 56.08 0 0 104.88 58.99 0 0.73 102.69 61.18 0.73 0.73 100.51 64.09 0 0.73 99.05 67.01 0 0 96.87 69.92 0 0 94.68 72.83 0 0 92.5 75.02 0 0 90.31 77.2 0 0.73 88.13 79.39 0 0 85.94 82.3 0 0.73 83.76 84.48 0 0 80.84 86.67 0 0 78.66 88.85 0 0 75.74 91.04 0 0 73.56 93.22 0 0 71.37 95.41 0 0c69.19,95.41 134.74,194.46 196.65,296.42l0 0c61.18,101.96 118.72,206.11 171.88,312.45l0 0.73c35.69,70.65 69.19,142.75 100.51,215.58l0 0.73 45.16 109.98 0.73 0c29.13,74.29 56.08,148.58 81.57,225.05l0 0 35.69 114.35 0.73 0c23.31,76.47 44.43,153.67 62.64,231.6l0.73 0 26.22 117.99 0 0c16.75,78.66 31.32,158.77 42.97,238.89l0.73 0 15.29 120.17 0.73 0c19.66,161.69 29.86,325.56 30.59,490.89l-0.73 123.81 0 0.73 -5.1 124.54 0 0 -8.74 125.27 0 0 -12.38 126 0 0 -16.02 126 -0.73 0 -19.66 126.73 0 0 -24.03 126.73 -0.73 0 -26.95 126.73 -0.73 0 -31.32 126.73 -0.73 0 -206.11 770.56zm23766.41 8875.26l-14777.53 0 -914.77 3413.62 21139.38 0 -1646.72 6144.8 -21937.61 0c-2806.93,0 -4849.86,-2662 -4123.73,-5372.79l206.11 -772.02 1.46 0 4206.75 -15699.58 731.96 -2733.37 0.73 0 6361.11 0 21140.1 0 -1646.72 6144.8 -21140.1 0 -914.77 3413.62 14778.99 0 -91.77 340.85 -1281.11 4779.21 -91.77 340.85zm125308.25 -2921.28l10430.94 -10430.94c1011.63,-1010.9 2363.39,-1602.3 3786.52,-1662.02l1.46 -5.1 236.7 0 6124.41 0 0 0 -29.86 109.98 -6555.57 24467.05 -6361.11 0 3474.8 -12966.21 3602.25 -5533.02 -2896.51 2896.51 -9121.43 9121.43 -1.46 0 -6322.51 0 -0.73 0 -5601.48 -9701.9 -4336.39 16183.18 -6361.11 0 6353.1 -23708.87 -0.73 -0.73 233.06 -867.42 6361.11 0 6984.55 12098.06zm-42143.28 -10229.93l-8.01 32.05 232.33 -233.06 0 0 50.25 -49.53 0 0 50.98 -48.8 0 -0.73 51.71 -48.07 51.71 -47.34 52.44 -47.34 53.17 -45.88 53.9 -45.88 53.9 -44.43 53.9 -44.43 55.35 -42.97 55.35 -42.97 56.08 -41.51 56.08 -41.51 0 0 56.81 -40.06 0 -0.73 57.54 -39.33 57.54 -38.6 0.73 -0.73 58.27 -37.87 0 -0.73 58.27 -37.14 58.99 -36.42 0.73 -0.73 58.99 -35.69 0 0 59.72 -34.96 0 -0.73 60.45 -34.23 0 0 61.18 -33.5 0 -0.73 60.45 -32.77 0 0 61.91 -32.05 0 -0.73 61.18 -31.32 0.73 0 61.91 -30.59 62.64 -29.86 0 0 63.36 -29.86 62.64 -28.4 0.73 0 63.36 -27.68 0 0 64.09 -26.95 64.09 -26.22 64.82 -25.49 64.82 -24.76 64.82 -23.31 0 0 65.55 -23.31 0.73 0 65.55 -21.85 65.55 -21.85 66.28 -20.39 67.01 -19.66 66.28 -18.94 0.73 0 67.01 -18.21 0 0 67.01 -17.48 0.73 0 67.01 -16.75 67.73 -15.29 0 -0.73 68.46 -14.57 67.73 -13.84 0.73 0 136.92 -25.49 0 -0.73 68.46 -10.92 0 -0.73 69.19 -10.2 0 0 69.19 -9.47 0 -0.73 69.19 -8.74 0 0 69.92 -8.01 0 0 69.19 -7.28 0.73 -0.73 69.19 -5.83 0.73 0 69.92 -5.83 69.92 -4.37 0 -0.73 69.92 -3.64 0 0 70.65 -2.91 0 -0.73 70.65 -1.46 0 0 70.65 -1.46 0 0 70.65 0 0 -0.73 13214.57 0 6327.61 0 33.5 0 -6585.43 24577.03 -6361.11 0 1211.92 -4522.11 -9802.41 0 -5078.55 1365.59 -2447.87 0 -845.58 3156.52 -6361.11 0 567.36 -2118.67 278.95 -1037.85 1153.65 -4307.26 1747.96 -6524.26 0.73 -0.73 8696.82 -8720.13zm-3188.57 11902.14l-404.22 1506.16 5096.76 -1366.32 536.77 0 0 0 11695.3 0 2080.8 -7765.31 -11379.94 0 -7625.47 7625.47zm76494.31 -11902.14l-8.01 31.32 231.6 -232.33 0 0 50.25 -49.53 0.73 0 50.25 -48.8 0 -0.73 51.71 -48.07 0 0 51.71 -47.34 0 0 52.44 -47.34 0 0 53.17 -45.88 0 0 53.17 -45.88 0.73 0 53.17 -44.43 0.73 0 53.9 -44.43 0.73 0 54.62 -42.97 0 0 55.35 -42.97 56.08 -41.51 0 0c56.08,-42.24 112.89,-82.3 170.43,-121.63l0.73 0 57.54 -38.6 0 -0.73 58.27 -37.87 0 -0.73 58.27 -37.14 0.73 0 58.27 -36.42 0 -0.73 119.44 -70.65 0 -0.73 60.45 -34.23 0 0 60.45 -33.5 0 -0.73 61.91 -32.77 0 0 61.18 -32.05 0 -0.73 61.91 -31.32 0 0 61.91 -30.59 0.73 0 61.91 -29.86 63.36 -29.86 0 0 62.64 -28.4 0.73 0 63.36 -27.68 0 0 64.09 -26.95 0 0 64.09 -26.22 0 0 64.09 -25.49 0.73 0 64.82 -24.76 0 0 64.82 -23.31 0.73 0 64.82 -23.31 0 0 65.55 -21.85 0.73 0 65.55 -21.85 0.73 0 65.55 -20.39 0.73 0 66.28 -19.66 0 0 66.28 -18.94 0.73 0 67.01 -18.21 0 0 67.01 -17.48 0 0 67.73 -16.75 0 0 135.47 -30.59 0.73 0 67.73 -13.84 0.73 0c182.08,-37.14 366.34,-64.09 552.79,-82.3l0 -0.73 69.92 -5.83 69.19 -5.83 0.73 0 69.92 -4.37 0 -0.73 69.92 -3.64 0 0 70.65 -2.91 0 -0.73 141.29 -2.91 0 0 70.65 0 0 -0.73 13181.79 0 6360.38 0 0.73 0 -0.73 0 -1645.27 6144.8 -0.73 0 -4938.71 18432.22 -6361.11 0 1211.92 -4522.11 -9768.9 0 -5079.28 1365.59 -2447.87 0 -845.58 3156.52 -6361.11 0 567.36 -2118.67 3180.56 -11869.37 0 -0.73 8698.28 -8720.13zm-3189.3 11901.41l-403.49 1506.89 5096.03 -1366.32 536.77 0 0 0 11662.53 0 2080.8 -7765.31 -11347.17 0 -7625.47 7624.74zm-112060.9 10807.48l-2876.12 -4945.99 691.9 -2576.05 93.22 -349.59 0.73 -0.73 11.65 -44.43 0.73 -0.73 12.38 -44.43 0 -0.73 12.38 -44.43 0.73 -0.73 13.11 -43.7 0 -0.73 13.84 -44.43 0 0 13.84 -44.43 0 0 14.57 -44.43 0 0 14.57 -44.43 0.73 0 14.57 -43.7 0.73 0 14.57 -43.7 0.73 -0.73 15.29 -43.7 0.73 0 15.29 -43.7 0 0 16.75 -43.7 16.75 -42.97 17.48 -42.97 0 -0.73 17.48 -42.24 0 -0.73 18.21 -42.97 18.21 -42.24 18.94 -42.97 18.94 -42.24 0 0 18.94 -42.24 0.73 0 18.94 -42.24 20.39 -41.51 20.39 -42.24 0 0 20.39 -41.51 0 0 21.12 -40.79 0 -0.73 42.97 -81.57 0 -0.73 22.58 -40.06 0 -0.73 22.58 -40.06 0 -0.73 22.58 -40.06 0 0 22.58 -40.06 0 -0.73 23.31 -39.33 0 -0.73 24.03 -39.33 0 -0.73 24.03 -39.33 0 0 24.03 -39.33 0 -0.73 24.76 -38.6 0 0 25.49 -39.33 0 0c41.51,-64.82 85.21,-128.91 129.64,-192.28l0 -0.73 53.9 -75.02 0 0c36.42,-50.25 74.29,-99.78 112.16,-148.58l0 0 87.4 -109.25 0 0c117.99,-143.48 242.53,-281.86 376.54,-415.14l8008.56 -8008.56 4477.69 -4478.42 50.25 -48.8 0 -0.73 50.98 -48.8 0 0 51.71 -48.07 0 0 51.71 -47.34 0 -0.73 52.44 -46.61 0 0 53.17 -45.88 0 0 53.17 -45.88 0 0 53.9 -44.43 0 -0.73 54.62 -43.7 0 0 55.35 -42.97 0 -0.73 55.35 -42.24 0 0 55.35 -41.51 0 -0.73 56.81 -40.79 0 0 56.81 -40.06 0 -0.73 57.54 -39.33 0 -0.73 57.54 -37.87 0 -0.73 58.27 -37.87 0 -0.73 58.99 -37.14 0 -0.73 58.99 -35.69 0 -0.73 58.99 -35.69 0 0 60.45 -34.96 0 -0.73 60.45 -34.23 0 0 60.45 -33.5 0 -0.73 61.18 -32.77 0 0 61.18 -32.05 0 -0.73 61.91 -31.32 0 0 62.64 -30.59 0 -0.73 61.91 -29.13 0 -0.73 63.36 -29.13 0 0 63.36 -28.4 0 0 63.36 -27.68 0 0 64.09 -26.95 0 0 64.09 -26.22 0 0 64.82 -25.49 0 0 64.82 -24.76 0 0 65.55 -23.31 0 -0.73 64.82 -22.58 0 0 66.28 -21.85 0 -0.73 66.28 -21.12 0 0 66.28 -20.39 0 0 66.28 -19.66 0 -0.73 67.01 -18.21 0 -0.73 67.01 -17.48 0 -0.73 67.73 -16.75 0 0 67.01 -16.75 0 0 68.46 -16.02 0 0 67.73 -14.57 0 0 68.46 -13.84 0 -0.73 68.46 -13.11 0 0 68.46 -12.38 0 0 69.19 -11.65 0 0 69.19 -10.2 0 -0.73 69.19 -9.47 0 0 69.19 -8.74 0 -0.73 69.92 -7.28 0 -0.73 69.19 -7.28 0 0 69.92 -5.83 0 -0.73 70.65 -5.1 0 -0.73 69.92 -4.37 0 0 69.92 -3.64 0 -0.73 70.65 -2.91 0 0 70.65 -1.46 0 -0.73 70.65 -0.73 0 -0.73 70.65 0 0 0 6331.25 0 -0.73 0 4348.78 0 3377.2 0 0 0.73 1412.93 0 -6585.43 24576.3 -6361.11 0 4938.71 -18432.22 -7275.15 0 -12267.76 12267.76 -1651.09 6164.47 -2160.91 0zm-16271.31 -9371.97l-8951.01 2405.63 -1865.95 6966.34 -6361.11 0 1875.41 -7000.57 -0.73 0 1333.55 -4974.4 0 0 3376.47 -12602.05 6361.11 0 -2884.13 10765.97 8787.86 -2355.37 8574.47 -8410.59 8846.13 0 -13170.87 13170.87 6585.43 11406.89 991.97 1718.83 -8087.95 -1718.83 -3988.26 -6908.81 -1422.4 -2463.89zm-55933.95 -5862.94l857.23 -3198.04 -16962.48 0 -2168.93 8095.23 18274.18 -4897.2zm-30547.04 27294.38l0 0 0 0zm91.04 -178.44l0 -0.73c47.34,-88.13 96.87,-174.8 149.3,-260.01l0 0c87.4,-141.29 181.35,-276.76 281.13,-407.86l0.73 -0.73 60.45 -77.2 0.73 0 61.91 -76.47 0 0 63.36 -75.02 0.73 0 64.82 -73.56 0.73 -0.73 66.28 -72.1 0.73 0 67.73 -70.65 0 0 69.19 -69.92 0.73 0 69.92 -67.73 0.73 0 72.1 -66.28 0 -0.73 73.56 -64.82 0 -0.73 75.02 -62.64 0 -0.73 75.74 -61.91 0 0 77.2 -60.45 0.73 0 77.93 -58.99 0 0 80.11 -57.54 0 0 80.84 -55.35 0 -0.73 81.57 -53.17 0 -0.73 83.03 -52.44 0 0 84.48 -50.98 84.48 -48.8 0.73 -0.73 85.94 -47.34 0 0 87.4 -45.16 0 -0.73 88.13 -43.7 0 0 88.85 -42.24 0 0 89.58 -40.79 0.73 0 90.31 -38.6 0 0 91.77 -37.14 0.73 0 92.5 -34.96 0 0 93.22 -33.5 94.68 -30.59 0 -0.73 94.68 -29.13 0 -0.73 96.14 -26.95 0 0 96.14 -25.49 0 -0.73 97.59 -23.31 0 0 97.59 -21.85 0.73 0 98.32 -19.66 0 0 99.05 -18.21 0 0 99.78 -15.29 0 0 100.51 -13.84 0 0 100.51 -11.65 0.73 0 100.51 -9.47 0.73 0 101.96 -8.01 0 0 102.69 -5.1 0 0 101.96 -2.91 0.73 -0.73 102.69 -0.73 0.73 0 18872.86 0 0 -0.73 798.23 0 131.1 2.18 129.64 5.83 0 0.73c171.88,10.2 341.58,30.59 506.91,59.72l0 0 123.09 24.03 0 0 121.63 27.68 0 0 120.17 31.32 0.73 0 117.99 34.23 0.73 0 116.53 37.87 0.73 0 115.07 40.79 0.73 0 113.62 43.7 0 0.73 112.16 46.61 0.73 0 109.25 50.25 0.73 0.73 107.79 52.44 0.73 0.73 106.33 55.35 0.73 0.73 104.15 58.99 1.46 0 101.96 61.18 0.73 0.73c136.2,84.48 265.84,176.25 390.38,274.58l0.73 0c249.81,197.37 475.59,420.97 675.88,666.41l0.73 0.73c498.9,613.97 827.37,1364.86 925.69,2171.84l0.73 0c9.47,80.84 16.75,162.41 21.85,243.99l0.73 0 5.83 123.09 0 0 2.18 123.81 -0.73 124.54 0 0 -5.1 124.54 0 0 -8.74 125.27 0 0 -12.38 126 0 0 -16.02 126 -0.73 0 -19.66 126.73 0 0 -24.03 126 -27.68 127.46 -32.05 126.73 -3447.12 12862.79 -52.44 195.92 0 0 -422.42 1576.08 -568.09 2120.86 -8413.51 2253.41 0 0.73 -22.58 5.83 0 0 -22.58 5.83 0 0 -22.58 5.83 0 0 -22.58 5.83 -22.58 5.83 -22.58 5.1 -22.58 5.83 -22.58 5.1 -23.31 5.1 -22.58 5.1 0 0 -22.58 5.1 0 0 -22.58 5.1 -22.58 4.37 0 0.73 -23.31 4.37 0 0.73 -22.58 3.64 0 0.73 -22.58 4.37 0 0 -23.31 4.37 0 0.73 -22.58 3.64 0 0 -22.58 4.37 0 0 -23.31 3.64 0 0.73 -22.58 3.64 0 0.73 -23.31 3.64 0 0.73 -22.58 2.91 0 0.73 -23.31 3.64 0 0 -22.58 3.64 0 0 -23.31 3.64 0 0 -91.77 13.11 0 0.73 -138.38 17.48 -0.73 0 -91.77 10.2 -0.73 0 -91.77 8.01 0 0 -23.31 2.18 0 0 -23.31 1.46 0 0 -22.58 2.18 -0.73 0 -92.5 5.1 -0.73 0 -69.19 3.64 0 0 -23.31 0.73 0 0 -23.31 0.73 0 0 -23.31 0.73 0 0 -23.31 0.73 0 0 -23.31 0.73 -23.31 0 -23.31 0.73 -23.31 0 -23.31 0 -23.31 0 -16369.63 0 0 0 -262.92 -455.93 -624.17 -1080.09 0 0 -1419.49 -2459.52 575.37 -2149.26 0.73 0 3967.87 -14814.68c80.11,-300.07 187.18,-587.02 319,-859.41l91.04 -178.44zm18591.73 14532.82l6852.73 -1836.08 -793.14 2959.88 -6059.59 -1123.79zm9623.24 -13363.14c9.47,80.84 16.75,162.41 21.85,243.99l-21.85 -243.99z"/>
  </g>
 </g>
</svg>
